#Comment line ignore any data following # character 
#Hierarchical Translation and Rotation (.htr) file 
[Header]	
#Header keywords are followed by a single value 
FileType HTR		#Single word string
DataType HTRS		#Translation followed by rotation and scale data
FileVersion 1		#integer
NumSegments 64		#integer
NumFrames 3		#integer
DataFrameRate 30		#integer, data frame rate in this file
EulerRotationOrder ZYX
CalibrationUnits mm
RotationUnits Degrees
GlobalAxisofGravity Y
BoneLengthAxis Y
ScaleFactor 1.00
[SegmentNames&Hierarchy]
#CHILD	PARENT
Pinger_Root GLOBAL
Pelvis Pinger_Root
L_Hip Pelvis
R_Hip Pelvis
Rear_Leg01 Pelvis
Spine1 Pelvis
L_Leg01 L_Hip
L_Leg02 L_Leg01
L_Leg03 L_Leg02
L_Foot L_Leg03
L_Toe1_01 L_Foot
L_Toe2_01 L_Foot
L_Toe3_01 L_Foot
planeAlignerLeft L_Foot
L_Toe1_02 L_Toe1_01
L_Toe1_03 L_Toe1_02
L_Toe2_02 L_Toe2_01
L_Toe2_03 L_Toe2_02
L_Toe3_02 L_Toe3_01
L_Toe3_03 L_Toe3_02
planeLockWeightLeft planeAlignerLeft
R_Leg01 R_Hip
R_Leg02 R_Leg01
R_Leg03 R_Leg02
R_Foot R_Leg03
planeAlignerRight R_Foot
R_Toe1_01 R_Foot
R_Toe2_01 R_Foot
R_Toe3_01 R_Foot
planeLockWeightRight planeAlignerRight
R_Toe1_02 R_Toe1_01
R_Toe1_03 R_Toe1_02
R_Toe2_02 R_Toe2_01
R_Toe2_03 R_Toe2_02
R_Toe3_02 R_Toe3_01
R_Toe3_03 R_Toe3_02
Rear_Leg02 Rear_Leg01
Rear_Leg03 Rear_Leg02
Rear_Leg04 Rear_Leg03
Rear_Foot Rear_Leg04
planeAlignerCenter Rear_Foot
Rear_Toe1_01 Rear_Foot
Rear_Toe2_01 Rear_Foot
Rear_Toe3_01 Rear_Foot
planeLockWeightCenter planeAlignerCenter
Rear_Toe1_02 Rear_Toe1_01
Rear_Toe1_03 Rear_Toe1_02
Rear_Toe2_02 Rear_Toe2_01
Rear_Toe2_03 Rear_Toe2_02
Rear_Toe3_02 Rear_Toe3_01
Rear_Toe3_03 Rear_Toe3_02
Back_Bone Spine1
Head Spine1
Motor_Bone Back_Bone
Ping_Mechanism Back_Bone
BN_LookIK Head
bottomMouth Head
L_Mouth01 Head
L_mouthFront Head
mouthGun Head
R_Mouth01 Head
R_mouthFront Head
TopMouth Head
weapon_bone Head
[BasePosition]
#SegmentName Tx, Ty, Tz, Rx, Ry, Rz, BoneLength
Pinger_Root 0.000000 0.000000 0.000000 -90.000000 0.000000 0.000000 10.000000 
Pelvis 0.000000 0.000000 0.000000 0.000000 0.000000 0.000000 10.000000 
L_Hip 0.000000 0.000000 0.000000 0.000000 0.000000 0.000000 10.000000 
R_Hip 0.000000 0.000000 0.000000 0.000000 0.000000 0.000000 10.000000 
Rear_Leg01 0.000000 0.000000 0.000000 0.000000 0.000000 0.000000 10.000000 
Spine1 0.000000 0.000000 0.000000 0.000000 0.000000 0.000000 10.000000 
L_Leg01 0.000000 0.000000 0.000000 0.000000 0.000000 0.000000 10.000000 
L_Leg02 0.000000 0.000000 0.000000 0.000000 0.000000 0.000000 10.000000 
L_Leg03 0.000000 0.000000 0.000000 0.000000 0.000000 0.000000 10.000000 
L_Foot 0.000000 0.000000 0.000000 0.000000 0.000000 0.000000 10.000000 
L_Toe1_01 0.000000 0.000000 0.000000 0.000000 0.000000 0.000000 10.000000 
L_Toe2_01 0.000000 0.000000 0.000000 0.000000 0.000000 0.000000 10.000000 
L_Toe3_01 0.000000 0.000000 0.000000 0.000000 0.000000 0.000000 10.000000 
planeAlignerLeft 0.000000 0.000000 0.000000 0.000000 0.000000 0.000000 10.000000 
L_Toe1_02 0.000000 0.000000 0.000000 0.000000 0.000000 0.000000 10.000000 
L_Toe1_03 0.000000 0.000000 0.000000 0.000000 0.000000 0.000000 10.000000 
L_Toe2_02 0.000000 0.000000 0.000000 0.000000 0.000000 0.000000 10.000000 
L_Toe2_03 0.000000 0.000000 0.000000 0.000000 0.000000 0.000000 10.000000 
L_Toe3_02 0.000000 0.000000 0.000000 0.000000 0.000000 0.000000 10.000000 
L_Toe3_03 0.000000 0.000000 0.000000 0.000000 0.000000 0.000000 10.000000 
planeLockWeightLeft 0.000000 0.000000 0.000000 0.000000 0.000000 0.000000 10.000000 
R_Leg01 0.000000 0.000000 0.000000 0.000000 0.000000 0.000000 10.000000 
R_Leg02 0.000000 0.000000 0.000000 0.000000 0.000000 0.000000 10.000000 
R_Leg03 0.000000 0.000000 0.000000 0.000000 0.000000 0.000000 10.000000 
R_Foot 0.000000 0.000000 0.000000 0.000000 0.000000 0.000000 10.000000 
planeAlignerRight 0.000000 0.000000 0.000000 0.000000 0.000000 0.000000 10.000000 
R_Toe1_01 0.000000 0.000000 0.000000 0.000000 0.000000 0.000000 10.000000 
R_Toe2_01 0.000000 0.000000 0.000000 0.000000 0.000000 0.000000 10.000000 
R_Toe3_01 0.000000 0.000000 0.000000 0.000000 0.000000 0.000000 10.000000 
planeLockWeightRight 0.000000 0.000000 0.000000 0.000000 0.000000 0.000000 10.000000 
R_Toe1_02 0.000000 0.000000 0.000000 0.000000 0.000000 0.000000 10.000000 
R_Toe1_03 0.000000 0.000000 0.000000 0.000000 0.000000 0.000000 10.000000 
R_Toe2_02 0.000000 0.000000 0.000000 0.000000 0.000000 0.000000 10.000000 
R_Toe2_03 0.000000 0.000000 0.000000 0.000000 0.000000 0.000000 10.000000 
R_Toe3_02 0.000000 0.000000 0.000000 0.000000 0.000000 0.000000 10.000000 
R_Toe3_03 0.000000 0.000000 0.000000 0.000000 0.000000 0.000000 10.000000 
Rear_Leg02 0.000000 0.000000 0.000000 0.000000 0.000000 0.000000 10.000000 
Rear_Leg03 0.000000 0.000000 0.000000 0.000000 0.000000 0.000000 10.000000 
Rear_Leg04 0.000000 0.000000 0.000000 0.000000 0.000000 0.000000 10.000000 
Rear_Foot 0.000000 0.000000 0.000000 0.000000 0.000000 0.000000 10.000000 
planeAlignerCenter 0.000000 0.000000 0.000000 0.000000 0.000000 0.000000 10.000000 
Rear_Toe1_01 0.000000 0.000000 0.000000 0.000000 0.000000 0.000000 10.000000 
Rear_Toe2_01 0.000000 0.000000 0.000000 0.000000 0.000000 0.000000 10.000000 
Rear_Toe3_01 0.000000 0.000000 0.000000 0.000000 0.000000 0.000000 10.000000 
planeLockWeightCenter 0.000000 0.000000 0.000000 0.000000 0.000000 0.000000 10.000000 
Rear_Toe1_02 0.000000 0.000000 0.000000 0.000000 0.000000 0.000000 10.000000 
Rear_Toe1_03 0.000000 0.000000 0.000000 0.000000 0.000000 0.000000 10.000000 
Rear_Toe2_02 0.000000 0.000000 0.000000 0.000000 0.000000 0.000000 10.000000 
Rear_Toe2_03 0.000000 0.000000 0.000000 0.000000 0.000000 0.000000 10.000000 
Rear_Toe3_02 0.000000 0.000000 0.000000 0.000000 0.000000 0.000000 10.000000 
Rear_Toe3_03 0.000000 0.000000 0.000000 0.000000 0.000000 0.000000 10.000000 
Back_Bone 0.000000 0.000000 0.000000 0.000000 0.000000 0.000000 10.000000 
Head 0.000000 0.000000 0.000000 0.000000 0.000000 0.000000 10.000000 
Motor_Bone 0.000000 0.000000 0.000000 0.000000 0.000000 0.000000 10.000000 
Ping_Mechanism 0.000000 0.000000 0.000000 0.000000 0.000000 0.000000 10.000000 
BN_LookIK 0.000000 0.000000 0.000000 0.000000 0.000000 0.000000 10.000000 
bottomMouth 0.000000 0.000000 0.000000 0.000000 0.000000 0.000000 10.000000 
L_Mouth01 0.000000 0.000000 0.000000 0.000000 0.000000 0.000000 10.000000 
L_mouthFront 0.000000 0.000000 0.000000 0.000000 0.000000 0.000000 10.000000 
mouthGun 0.000000 0.000000 0.000000 0.000000 0.000000 0.000000 10.000000 
R_Mouth01 0.000000 0.000000 0.000000 0.000000 0.000000 0.000000 10.000000 
R_mouthFront 0.000000 0.000000 0.000000 0.000000 0.000000 0.000000 10.000000 
TopMouth 0.000000 0.000000 0.000000 0.000000 0.000000 0.000000 10.000000 
weapon_bone 0.000000 0.000000 0.000000 0.000000 0.000000 0.000000 10.000000 
#Beginning of Data. Separated by tabs
#Fr	Tx	Ty	Tz	Rx	Ry	Rz	SF
[Pinger_Root]
22 0.000020 1620.369995 0.000000 -0.000075 -0.000000 -0.000020 1620.370117
23 0.000019 1740.740112 0.000000 -0.000075 -0.000000 -0.000020 1740.740112
24 0.000019 1861.110596 0.000000 -0.000075 -0.000000 -0.000020 1861.110596
[Pelvis]
22 161.783783 1387.707642 5113.027344 -103.262817 -78.590164 94.077705 5300.467773
23 118.513680 1402.084839 5157.763672 -108.403351 -82.317474 99.366241 5346.251953
24 59.639465 1415.883423 5194.345215 -133.322983 -86.898201 124.502838 5384.190430
[L_Hip]
22 5.766392 125.831482 872.656799 -178.589432 -81.709145 87.734573 881.701050
23 5.766392 125.831482 872.656799 -178.253311 -81.787758 87.381340 881.701050
24 5.766392 125.831482 872.656799 -178.253311 -81.787758 87.381340 881.701050
[R_Hip]
22 5.765438 125.836372 -872.654907 -1.272551 81.734520 87.837959 881.699829
23 5.765438 125.836372 -872.654907 -1.746690 81.787712 87.381248 881.699829
24 5.765438 125.836372 -872.654907 -1.746690 81.787712 87.381248 881.699829
[Rear_Leg01]
22 -192.298416 -925.602966 -0.001907 171.806412 5.784377 -147.346497 945.367432
23 -192.298416 -925.602966 -0.001907 171.506668 6.985031 -148.242981 945.367432
24 -192.298416 -925.602966 -0.001907 172.083237 8.193369 -148.735489 945.367432
[Spine1]
22 290.604584 5.007505 0.000477 10.355452 -2.267493 18.067316 290.647736
23 290.604584 5.007505 0.000477 10.484235 -2.490002 22.190722 290.647736
24 290.604584 5.007505 0.000477 10.572937 -2.786459 27.550051 290.647736
[L_Leg01]
22 761.932007 -0.002384 -0.069261 61.221806 -16.602730 -65.105858 761.932068
23 761.932007 -0.002384 -0.069261 63.053452 -13.518565 -66.762077 761.932068
24 761.932007 -0.002384 -0.069261 64.772881 -10.386344 -68.298431 761.932068
[L_Leg02]
22 1441.140503 -0.000954 -0.000715 -1.476919 0.484988 -97.038147 1441.140503
23 1441.140503 -0.000954 -0.000715 -1.487759 0.563661 -96.860374 1441.140503
24 1441.140503 -0.000954 -0.000715 -1.448292 0.640549 -97.639069 1441.140503
[L_Leg03]
22 1686.963989 -0.000715 -0.000954 0.029390 -0.010221 102.375084 1686.963989
23 1686.963989 -0.000715 -0.000954 0.039826 -0.013781 99.333733 1686.963989
24 1686.963989 -0.000715 -0.000954 0.054222 -0.013185 95.662910 1686.963989
[L_Foot]
22 3041.570068 -30.715107 11.297464 -17.456522 16.291807 64.176834 3041.746094
23 3041.570068 -30.715107 11.297464 -16.897331 16.434978 67.140594 3041.746094
24 3041.570068 -30.715107 11.297464 -16.099981 16.577372 70.612747 3041.746094
[L_Toe1_01]
22 -188.216690 -224.732346 -21.137953 89.712082 -3.434679 -165.433182 293.899567
23 -188.216690 -224.732346 -21.137953 89.724831 -3.494527 -165.417328 293.899567
24 -188.216690 -224.732346 -21.137953 89.683563 -3.337766 -165.223068 293.899567
[L_Toe2_01]
22 200.746536 -219.926590 148.838394 -77.565712 -14.420163 -44.299786 332.896027
23 200.746536 -219.926590 148.838394 -77.546547 -14.366260 -44.412472 332.896027
24 200.746536 -219.926590 148.838394 -77.527504 -14.312325 -44.525112 332.896027
[L_Toe3_01]
22 188.832520 -219.859131 -191.078659 -105.055313 14.347095 -45.080677 347.140900
23 188.832520 -219.859131 -191.078659 -105.123886 14.478391 -45.203262 347.140900
24 188.832520 -219.859131 -191.078659 -105.192787 14.609546 -45.326073 347.140900
[planeAlignerLeft]
22 -5.313734 -607.900696 30.375282 0.000000 -89.960434 -90.001617 608.682251
23 -7.562400 -609.163208 28.462568 0.000000 -90.000000 -90.001633 609.874695
24 -9.811092 -610.425781 26.549839 0.000000 -90.000000 -90.001633 611.081665
[L_Toe1_02]
22 413.761139 0.000477 0.000000 0.001412 -22.409708 0.001412 413.761139
23 413.761139 0.000477 0.000000 0.001413 -22.290375 0.001413 413.761139
24 413.761139 0.000477 0.000000 0.001412 -22.411362 0.001412 413.761139
[L_Toe1_03]
22 464.317322 0.000358 -0.000089 0.016613 81.898064 0.016613 464.317322
23 464.317322 0.000358 -0.000089 0.015830 81.496658 0.015830 464.317322
24 464.317322 0.000358 -0.000089 0.015118 81.095085 0.015118 464.317322
[L_Toe2_02]
22 342.235809 -0.000477 0.000238 0.001181 -77.601677 0.001181 342.235809
23 342.235809 -0.000477 0.000238 0.001181 -77.462029 0.001181 342.235809
24 342.235809 -0.000477 0.000238 0.001181 -77.588875 0.001181 342.235809
[L_Toe2_03]
22 420.210846 -0.000715 0.000000 -179.996063 78.414101 -179.992554 420.210846
23 420.210846 -0.000715 0.000000 -179.996109 78.324768 -179.992584 420.210846
24 420.210846 -0.000715 0.000000 -179.996353 77.802673 -179.992828 420.210846
[L_Toe3_02]
22 329.270111 0.000954 0.000000 0.001177 -81.754974 0.001177 329.270111
23 329.270111 0.000954 0.000000 0.001177 -81.745811 0.001177 329.270111
24 329.270111 0.000954 0.000000 0.001177 -81.736618 0.001177 329.270111
[L_Toe3_03]
22 439.137451 -0.001907 0.000954 -179.997787 73.377525 -179.994263 439.137451
23 439.137451 -0.001907 0.000954 -179.997818 73.282013 -179.994278 439.137451
24 439.137451 -0.001907 0.000954 -179.997833 73.186462 -179.994293 439.137451
[planeLockWeightLeft]
22 -0.001068 0.000000 -0.000296 -0.011826 -0.004376 0.005620 0.001108
23 -0.001068 0.000000 -0.000296 -0.011826 -0.004376 0.005620 0.001108
24 -0.001068 0.000000 -0.000296 -0.011826 -0.004376 0.005620 0.001108
[R_Leg01]
22 761.455627 -0.001907 -0.000358 93.714737 -12.742910 80.642502 761.455688
23 761.455627 -0.001907 -0.000358 93.155327 -6.011699 80.743553 761.455688
24 761.455627 -0.001907 -0.000358 92.335587 2.555456 80.687721 761.455688
[R_Leg02]
22 1441.140625 0.000000 -0.000238 0.182893 -0.023237 -94.453758 1441.140625
23 1441.140625 0.000000 -0.000238 0.188875 -0.015994 -90.209518 1441.140625
24 1441.140625 0.000000 -0.000238 0.195772 -0.005770 -85.250214 1441.140625
[R_Leg03]
22 1686.963989 0.000954 0.001431 -0.074640 0.013717 89.585785 1686.963989
23 1686.963989 0.000954 0.001431 -0.083698 0.013755 87.279205 1686.963989
24 1686.963989 0.000954 0.001431 -0.092751 0.013428 84.972595 1686.963989
[R_Foot]
22 3041.560059 -30.531288 -11.204481 11.385874 -21.837097 87.877869 3041.734131
23 3041.560059 -30.531288 -11.204481 12.053081 -21.871595 88.579140 3041.734131
24 3041.560059 -30.531288 -11.204481 12.719963 -21.913666 89.280113 3041.734131
[planeAlignerRight]
22 -2.837521 -714.811584 2.381028 0.000000 -89.951546 -90.004936 714.821167
23 -4.692986 -741.275940 4.411867 0.000000 -89.951546 -90.004936 741.303955
24 -6.548458 -767.740417 6.442714 0.000000 -89.951546 -90.004936 767.795410
[R_Toe1_01]
22 -188.383347 -224.864899 21.052242 90.815033 1.808613 -157.300949 294.101532
23 -188.383347 -224.864899 21.052242 90.898254 1.672949 -155.044556 294.101532
24 -188.383347 -224.864899 21.052242 90.976021 1.534167 -152.789383 294.101532
[R_Toe2_01]
22 200.637817 -220.002121 -148.787384 -103.554962 10.822066 -51.969852 332.857574
23 200.637817 -220.002121 -148.787384 -103.886803 10.290877 -53.838512 332.857574
24 200.637817 -220.002121 -148.787384 -104.200226 9.749500 -55.700401 332.857574
[R_Toe3_01]
22 188.606735 -220.092957 191.126343 -72.261169 -13.626794 -53.940693 347.192566
23 188.606735 -220.092957 191.126343 -71.781937 -13.163110 -55.878433 347.192566
24 188.606735 -220.092957 191.126343 -71.320076 -12.684086 -57.807922 347.192566
[planeLockWeightRight]
22 999.999573 0.000434 -0.000190 -0.011823 -0.004379 -0.000027 999.999573
23 999.999573 0.000446 -0.000205 -0.011823 -0.004379 -0.000027 999.999573
24 999.999512 0.000458 -0.000219 -0.011823 -0.004379 -0.000027 999.999512
[R_Toe1_02]
22 413.762085 0.000477 -0.000119 0.001400 -23.892698 0.001400 413.762085
23 413.762085 0.000477 -0.000119 0.001396 -24.395084 0.001396 413.762085
24 413.762085 0.000477 -0.000119 0.001392 -24.897467 0.001392 413.762085
[R_Toe1_03]
22 464.317810 0.000000 0.001088 0.008426 73.977600 0.008426 464.317810
23 464.317810 0.000000 0.001088 0.007192 71.215477 0.007192 464.317810
24 464.317810 0.000000 0.001088 0.006150 67.999001 0.006150 464.317810
[R_Toe2_02]
22 342.234741 -0.000954 0.000238 -0.000227 -74.676109 -0.000227 342.234741
23 342.234741 -0.000954 0.000238 0.000479 -73.753815 0.000479 342.234741
24 342.234741 -0.000954 0.000238 0.001187 -72.831612 0.001187 342.234741
[R_Toe2_03]
22 420.210846 0.000715 -0.000268 -179.999298 88.022751 179.998367 420.210846
23 420.210846 0.000715 -0.000268 0.102478 89.334412 0.101312 420.210846
24 420.210846 0.000715 -0.000268 0.040693 86.694527 0.040693 420.210846
[R_Toe3_02]
22 329.270355 -0.000477 -0.000954 0.001180 -78.548882 0.001180 329.270355
23 329.270355 -0.000477 -0.000954 0.001181 -77.673294 0.001181 329.270355
24 329.270355 -0.000477 -0.000954 0.001181 -76.797844 0.001181 329.270355
[R_Toe3_03]
22 439.137939 0.000238 0.001431 -179.987305 85.438629 -179.983810 439.137939
23 439.137939 0.000238 0.001431 -179.967300 88.087257 -179.963806 439.137939
24 439.137939 0.000238 0.001431 -0.091432 89.265114 -0.087936 439.137939
[Rear_Leg02]
22 1162.777710 -0.029802 0.005960 29.545097 -10.107456 -114.139999 1162.777710
23 1162.777710 -0.029802 0.005960 29.955847 -5.709895 -120.364380 1162.777710
24 1162.777710 -0.029802 0.005960 29.453968 -1.243923 -127.758293 1162.777710
[Rear_Leg03]
22 607.192505 -0.013351 -0.073195 0.009912 -0.006158 80.054047 607.192505
23 607.192505 -0.013351 -0.073195 0.009865 -0.006232 80.919510 607.192505
24 607.192505 -0.013351 -0.073195 0.009841 -0.006270 81.362259 607.192505
[Rear_Leg04]
22 995.874512 -0.020504 -0.011921 -0.044789 -0.012596 102.742714 995.874573
23 995.874512 -0.020504 -0.011921 -0.044047 -0.012141 109.058487 995.874573
24 995.874512 -0.020504 -0.011921 -0.043259 -0.011771 115.374283 995.874573
[Rear_Foot]
22 3096.176270 -0.067472 -0.041425 -69.337906 58.573898 69.014427 3096.176270
23 3096.176270 -0.067472 -0.041425 -69.130630 58.360565 75.714737 3096.176270
24 3096.176270 -0.067472 -0.041425 -67.190300 58.280251 85.074509 3096.176270
[planeAlignerCenter]
22 1.382777 252.976990 -759.447998 0.001660 -0.001660 179.998337 800.475220
23 2.920793 260.418823 -757.068176 0.001660 -0.001660 179.998337 800.611450
24 5.500216 271.392792 -757.333069 0.001660 -0.001660 179.998337 804.510803
[Rear_Toe1_01]
22 0.653352 83.966492 -371.173737 0.093860 39.631435 90.040344 380.553192
23 0.653352 83.966492 -371.173737 0.093062 39.620285 90.041580 380.553192
24 0.653352 83.966492 -371.173737 0.092265 39.609131 90.042824 380.553192
[Rear_Toe2_01]
22 178.200760 -294.826019 -362.060547 73.787704 84.603012 3.148499 499.765686
23 178.200760 -294.826019 -362.060547 90.095406 84.189880 19.480715 499.765686
24 178.200760 -294.826019 -362.060547 103.336739 83.383728 32.746609 499.765686
[Rear_Toe3_01]
22 -153.359680 -308.780914 -362.060852 -74.277672 83.883423 174.167099 499.952881
23 -153.359680 -308.780914 -362.060852 -88.644051 83.418167 159.771362 499.952881
24 -153.359680 -308.780914 -362.060852 -100.485420 82.604134 147.900497 499.952881
[planeLockWeightCenter]
22 0.000001 0.000356 0.000000 -0.011814 -0.004373 -0.000015 0.000356
23 0.000000 0.000331 0.000000 -0.011814 -0.004373 -0.000015 0.000331
24 0.000000 0.000305 0.000000 -0.011814 -0.004373 -0.000015 0.000305
[Rear_Toe1_02]
22 379.707825 0.194073 0.000477 -0.000767 -33.624729 0.000838 379.707855
23 379.707825 0.194073 0.000477 -0.000767 -33.624729 0.000838 379.707855
24 379.707825 0.194073 0.000477 -0.000767 -33.624729 0.000838 379.707855
[Rear_Toe1_03]
22 500.129700 0.165701 0.000119 -179.974625 87.212448 -179.978119 500.129761
23 500.129700 0.165701 0.000119 0.000000 89.920876 -0.003496 500.129761
24 500.129700 0.165701 0.000119 -0.019871 86.953285 -0.023369 500.129761
[Rear_Toe2_02]
22 340.494507 0.000238 -0.000954 179.998825 -87.262474 179.998825 340.494507
23 340.494507 0.000238 -0.000954 179.998825 -87.163582 179.998825 340.494507
24 340.494507 0.000238 -0.000954 179.998825 -87.064552 179.998825 340.494507
[Rear_Toe2_03]
22 433.103577 0.000000 0.000238 -179.996262 54.900425 -179.999924 433.103546
23 433.103577 0.000000 0.000238 -179.996277 54.423496 -179.999954 433.103546
24 433.103577 0.000000 0.000238 -179.996307 53.946571 -179.999985 433.103546
[Rear_Toe3_02]
22 340.494141 -0.000358 -0.000477 -179.994171 -87.317154 -179.994171 340.494171
23 340.494141 -0.000358 -0.000477 -179.994171 -87.214836 -179.994171 340.494171
24 340.494141 -0.000358 -0.000477 -179.994171 -87.112152 -179.994171 340.494171
[Rear_Toe3_03]
22 433.103577 0.001431 -0.000238 179.992416 55.168018 179.999741 433.103546
23 433.103577 0.001431 -0.000238 179.992462 54.712795 179.999802 433.103546
24 433.103577 0.001431 -0.000238 179.992508 54.257553 179.999863 433.103546
[Back_Bone]
22 1312.175781 -701.934692 0.000954 -3.050483 0.832757 -84.533096 1488.125488
23 1312.175781 -701.934692 0.000954 -3.220929 0.235591 -84.821922 1488.125488
24 1312.175781 -701.934692 0.000954 -3.324237 -0.566643 -84.748993 1488.125488
[Head]
22 1406.159424 809.709290 0.001431 -1.889753 2.434911 2.428914 1622.625488
23 1406.159424 809.709290 0.001431 -2.176483 2.445330 1.800776 1622.625488
24 1406.159424 809.709290 0.001431 -2.583784 2.356447 1.304291 1622.625488
[Motor_Bone]
22 1158.364380 -417.834747 0.000477 -5.513650 1.191243 -104.796593 1231.419434
23 1158.364380 -417.834747 0.000477 -3.495553 0.584008 -105.401466 1231.419434
24 1158.364380 -417.834747 0.000477 0.251848 -0.541806 -106.527901 1231.419434
[Ping_Mechanism]
22 1265.995483 -460.552948 -2.663686 0.000103 -0.000053 82.120995 1347.167725
23 1248.547974 -452.358429 -5.464180 0.000103 -0.000053 82.120995 1327.979736
24 1226.280396 -439.855957 -8.223566 0.000103 -0.000053 82.120995 1302.806396
[BN_LookIK]
22 193.241119 1380.371704 -0.002861 0.000000 89.965736 -31.038179 1393.832153
23 193.241119 1380.371704 -0.002861 0.000000 89.965736 -31.038179 1393.832153
24 193.241119 1380.371704 -0.002861 0.000000 89.965736 -31.038179 1393.832153
[bottomMouth]
22 -435.092926 615.759399 -0.000954 -0.000022 0.000016 73.527184 753.966492
23 -435.092926 615.759399 -0.000954 -0.000022 0.000016 73.527184 753.966492
24 -435.092926 615.759399 -0.000954 -0.000022 0.000016 73.527184 753.966492
[L_Mouth01]
22 554.440979 7.658243 838.222046 150.204178 23.759130 109.605339 1005.027161
23 554.440979 7.658243 838.222046 150.204178 23.759130 109.605339 1005.027161
24 554.440979 7.658243 838.222046 150.204178 23.759130 109.605339 1005.027161
[L_mouthFront]
22 551.629089 934.514771 339.150421 0.000081 2.804060 79.119301 1136.941284
23 551.629089 934.514771 339.150421 0.000081 2.804060 79.119301 1136.941284
24 551.629089 934.514771 339.150421 0.000081 2.804060 79.119301 1136.941284
[mouthGun]
22 55.332661 1627.420898 0.000000 0.000023 0.000009 -11.038128 1628.361328
23 55.332661 1627.420898 0.000000 0.000023 0.000009 -11.038128 1628.361328
24 55.332661 1627.420898 0.000000 0.000023 0.000009 -11.038128 1628.361328
[R_Mouth01]
22 554.442383 7.659197 -838.223938 29.795891 -23.759109 109.605331 1005.029541
23 554.442383 7.659197 -838.223938 29.795891 -23.759109 109.605331 1005.029541
24 554.442383 7.659197 -838.223938 29.795891 -23.759109 109.605331 1005.029541
[R_mouthFront]
22 551.629089 934.514282 -339.151367 0.000029 -2.803930 79.119133 1136.941162
23 551.629089 934.514282 -339.151367 0.000029 -2.803930 79.119133 1136.941162
24 551.629089 934.514282 -339.151367 0.000029 -2.803930 79.119133 1136.941162
[TopMouth]
22 461.269867 -56.106091 -0.008583 -0.000059 -0.000268 92.025169 464.669525
23 461.269867 -56.106091 -0.008583 -0.000059 -0.000268 92.025169 464.669525
24 461.269867 -56.106091 -0.008583 -0.000059 -0.000268 92.025169 464.669525
[weapon_bone]
22 -987.239868 1448.372803 0.001431 0.000000 89.965736 -31.038221 1752.833740
23 -987.239868 1448.372803 0.001431 0.000000 89.965736 -31.038221 1752.833740
24 -987.239868 1448.372803 0.001431 0.000000 89.965736 -31.038221 1752.833740
